{
	"patcher" : 	{
		"fileversion" : 1,
		"appversion" : 		{
			"major" : 6,
			"minor" : 1,
			"revision" : 8,
			"architecture" : "x86"
		}
,
		"rect" : [ 215.0, 69.0, 1160.0, 899.0 ],
		"bglocked" : 0,
		"openinpresentation" : 0,
		"default_fontsize" : 10.0,
		"default_fontface" : 0,
		"default_fontname" : "Arial",
		"gridonopen" : 0,
		"gridsize" : [ 15.0, 15.0 ],
		"gridsnaponopen" : 0,
		"statusbarvisible" : 2,
		"toolbarvisible" : 1,
		"boxanimatetime" : 200,
		"imprint" : 0,
		"enablehscroll" : 1,
		"enablevscroll" : 1,
		"devicewidth" : 0.0,
		"description" : "",
		"digest" : "",
		"tags" : "",
		"boxes" : [ 			{
				"box" : 				{
					"fontname" : "Verdana",
					"fontsize" : 10.0,
					"frgb" : 0.0,
					"id" : "obj-11",
					"linecount" : 3,
					"maxclass" : "comment",
					"numinlets" : 1,
					"numoutlets" : 0,
					"patching_rect" : [ 727.346375, 964.0, 201.5, 43.0 ],
					"text" : "output bark vector fmat with with loudness equalization and cube root compression"
				}

			}
, 			{
				"box" : 				{
					"fontname" : "Verdana",
					"fontsize" : 10.0,
					"frgb" : 0.0,
					"id" : "obj-7",
					"linecount" : 2,
					"maxclass" : "comment",
					"numinlets" : 1,
					"numoutlets" : 0,
					"patching_rect" : [ 501.34906, 971.0, 73.0, 31.0 ],
					"text" : "output bark vector fmat"
				}

			}
, 			{
				"box" : 				{
					"fontname" : "Verdana",
					"fontsize" : 10.0,
					"frgb" : 0.0,
					"id" : "obj-27",
					"linecount" : 13,
					"maxclass" : "comment",
					"numinlets" : 1,
					"numoutlets" : 0,
					"patching_rect" : [ 23.346436, 566.0, 525.0, 164.0 ],
					"text" : "FTM abstraction\ncomputes the energy of the banrk bands an inut spectrum.\n\nThe first inlet is the fmat vector containing the frame spectrum.\nThe second inlet input is a 2 element list containing window/frame size and number N of bark bands (the output vector will have N coefficients).\n\nThe first outlet output is an fmat vector containing the energy on of the N bark bands.\n\nThe second outlet output is an fmat vector containing the energy on of the N bark bands with loudness equalization and cube root compression\n\nWorks only for 48KHz sampling rate."
				}

			}
, 			{
				"box" : 				{
					"fontname" : "Verdana",
					"fontsize" : 24.0,
					"frgb" : 0.0,
					"id" : "obj-28",
					"maxclass" : "comment",
					"numinlets" : 1,
					"numoutlets" : 0,
					"patching_rect" : [ 23.346436, 530.0, 297.0, 36.0 ],
					"text" : "sfa.barkspect"
				}

			}
, 			{
				"box" : 				{
					"fontname" : "Arial",
					"fontsize" : 10.0,
					"frgb" : 0.0,
					"id" : "obj-3",
					"linecount" : 37,
					"maxclass" : "comment",
					"numinlets" : 1,
					"numoutlets" : 0,
					"patching_rect" : [ 23.346436, 86.0, 430.0, 420.0 ],
					"text" : "This file is part of the Voice-Controlled Interface for Digital Musical Instruments (VCI4DMI).\n\nThe Voice-Controlled Interface for Digital Musical Instruments (VCI4DMI) \nis a collection of MAX patches, MAX externals and MATLAB functions \nimplementing ad-hoc mappings to control an arbirtary number of real-valued\ninstrument parameters by variation of the voice timbre.\nThe VCI4DMI can be obtained at http://stefanofasciani.com/vci4dmi.html\nVCI4DMI Copyright (C) 2014 Stefano Fasciani, National University of Singapore\nInquiries: stefanofasciani@stefanofasciani.com\n\nThe VCI4DMI is free software: you can redistribute it and/or modify\nit under the terms of the GNU Lesser General Public License as published by\nthe Free Software Foundation, either version 3 of the License, or\n(at your option) any later version.\n\nThe VCI4DMI is distributed in the hope that it will be useful,\nbut WITHOUT ANY WARRANTY; without even the implied warranty of\nMERCHANTABILITY or FITNESS FOR A PARTICULAR PURPOSE.  See the\nGNU Less General Public License for more details.\n\nYou should have received a copy of the GNU Lesser General Public License\nalong with Foobar.  If not, see <http://www.gnu.org/licenses/>.\n\nIf you use the VCI4DMI or any part of it in any program or publication,\nplease acknowledge its authors by adding a reference any of these pubblications:\n\nFasciani, S. and Wyse, L. 2012. \"Adapting general purpose interfaces to synthesis\nengines using unsupervised dimensionality reduction techniques and inverse mapping\nfrom features to parameters\". In Proceedings of the 2012 International Computer\nMusic Conference. Ljubljana, Slovenia.\n\nFasciani, S. and Wyse, L. 2013. \"A Self-Organizing Gesture Map for a\nVoice-Controlled Instrument Interface. In Proceedings of the 13th conference\non New Interfaces for Musical Expression\". Daejeon, Korea.\n\nFasciani, S. 2014. \"Voice-Controlled Interface for Digital Musical Instruments\".\nPhD Thesis, National University of Singapore."
				}

			}
, 			{
				"box" : 				{
					"fontname" : "Arial",
					"fontsize" : 10.0,
					"id" : "obj-2",
					"maxclass" : "newobj",
					"numinlets" : 2,
					"numoutlets" : 1,
					"outlettype" : [ "" ],
					"patching_rect" : [ 587.34906, 712.0, 71.0, 18.0 ],
					"saved_object_attributes" : 					{
						"ftm_objref_conv" : 0,
						"ftm_scope" : 1
					}
,
					"text" : "ftm.copy fmat"
				}

			}
, 			{
				"box" : 				{
					"fontname" : "Arial",
					"fontsize" : 10.0,
					"id" : "obj-19",
					"maxclass" : "newobj",
					"numinlets" : 2,
					"numoutlets" : 1,
					"outlettype" : [ "" ],
					"patching_rect" : [ 747.846375, 256.0, 48.0, 18.0 ],
					"text" : "pack 0 0"
				}

			}
, 			{
				"box" : 				{
					"fontname" : "Arial",
					"fontsize" : 10.0,
					"id" : "obj-10",
					"maxclass" : "newobj",
					"numinlets" : 3,
					"numoutlets" : 2,
					"outlettype" : [ "", "" ],
					"patching_rect" : [ 740.846375, 223.0, 66.0, 18.0 ],
					"text" : "pipe 0 0 200"
				}

			}
, 			{
				"box" : 				{
					"fontname" : "Arial",
					"fontsize" : 10.0,
					"id" : "obj-9",
					"maxclass" : "newobj",
					"numinlets" : 2,
					"numoutlets" : 1,
					"outlettype" : [ "" ],
					"patching_rect" : [ 694.34906, 692.0, 71.0, 18.0 ],
					"saved_object_attributes" : 					{
						"ftm_objref_conv" : 0,
						"ftm_scope" : 0
					}
,
					"text" : "ftm.copy fmat"
				}

			}
, 			{
				"box" : 				{
					"comment" : "with loudness equalization and cube root compression",
					"id" : "obj-8",
					"maxclass" : "outlet",
					"numinlets" : 1,
					"numoutlets" : 0,
					"patching_rect" : [ 694.34906, 971.0, 24.0, 24.0 ]
				}

			}
, 			{
				"box" : 				{
					"id" : "obj-5",
					"maxclass" : "button",
					"numinlets" : 1,
					"numoutlets" : 1,
					"outlettype" : [ "bang" ],
					"patching_rect" : [ 1042.346436, 160.0, 20.0, 20.0 ]
				}

			}
, 			{
				"box" : 				{
					"fontname" : "Arial",
					"fontsize" : 10.0,
					"id" : "obj-1",
					"maxclass" : "message",
					"numinlets" : 2,
					"numoutlets" : 1,
					"outlettype" : [ "" ],
					"patching_rect" : [ 828.01355, 422.0, 32.5, 16.0 ],
					"text" : "28"
				}

			}
, 			{
				"box" : 				{
					"fontname" : "Verdana",
					"fontsize" : 10.0,
					"frgb" : 0.0,
					"id" : "obj-93",
					"maxclass" : "comment",
					"numinlets" : 1,
					"numoutlets" : 0,
					"patching_rect" : [ 587.34906, 189.5, 73.0, 19.0 ],
					"text" : "input vector"
				}

			}
, 			{
				"box" : 				{
					"fontname" : "Verdana",
					"fontsize" : 10.0,
					"frgb" : 0.0,
					"id" : "obj-88",
					"maxclass" : "comment",
					"numinlets" : 1,
					"numoutlets" : 0,
					"patching_rect" : [ 727.346375, 72.5, 144.0, 19.0 ],
					"text" : "list (win size - nbands)"
				}

			}
, 			{
				"box" : 				{
					"comment" : "list (win size, bands)",
					"id" : "obj-83",
					"maxclass" : "inlet",
					"numinlets" : 0,
					"numoutlets" : 1,
					"outlettype" : [ "" ],
					"patching_rect" : [ 727.346375, 100.5, 25.0, 25.0 ]
				}

			}
, 			{
				"box" : 				{
					"fontname" : "Arial",
					"fontsize" : 10.0,
					"id" : "obj-76",
					"maxclass" : "message",
					"numinlets" : 2,
					"numoutlets" : 1,
					"outlettype" : [ "" ],
					"patching_rect" : [ 890.846375, 398.25, 38.0, 16.0 ],
					"text" : "48000"
				}

			}
, 			{
				"box" : 				{
					"fontname" : "Arial",
					"fontsize" : 10.0,
					"id" : "obj-75",
					"maxclass" : "message",
					"numinlets" : 2,
					"numoutlets" : 1,
					"outlettype" : [ "" ],
					"patching_rect" : [ 805.596375, 345.0, 47.0, 16.0 ],
					"text" : "4096 28"
				}

			}
, 			{
				"box" : 				{
					"fontname" : "Arial",
					"fontsize" : 10.0,
					"id" : "obj-56",
					"maxclass" : "newobj",
					"numinlets" : 1,
					"numoutlets" : 1,
					"outlettype" : [ "bang" ],
					"patching_rect" : [ 974.346436, 90.0, 52.0, 18.0 ],
					"text" : "loadbang"
				}

			}
, 			{
				"box" : 				{
					"comment" : "output vector",
					"id" : "obj-13",
					"maxclass" : "outlet",
					"numinlets" : 1,
					"numoutlets" : 0,
					"patching_rect" : [ 587.34906, 971.0, 25.0, 25.0 ]
				}

			}
, 			{
				"box" : 				{
					"comment" : "input vector",
					"id" : "obj-6",
					"maxclass" : "inlet",
					"numinlets" : 0,
					"numoutlets" : 1,
					"outlettype" : [ "" ],
					"patching_rect" : [ 587.34906, 217.5, 25.0, 25.0 ]
				}

			}
, 			{
				"box" : 				{
					"#init" : "",
					"#loadbang" : 0,
					"#triggerall" : 0,
					"#untuple" : 0,
					"fontname" : "Arial",
					"fontsize" : 10.0,
					"ftm_objref_conv" : 0,
					"ftm_scope" : 0,
					"id" : "obj-42",
					"maxclass" : "ftm.mess",
					"numinlets" : 2,
					"numoutlets" : 1,
					"outlettype" : [ "" ],
					"patching_rect" : [ 694.34906, 881.0, 165.133591, 16.0 ],
					"presentation_rect" : [ 694.34906, 881.0, 165.133591, 16.0 ],
					"text" : [ "_($1 set ($2 - 1) 0 ($1 get ($2 - 2) 0))" ]
				}

			}
, 			{
				"box" : 				{
					"#init" : "",
					"#loadbang" : 0,
					"#triggerall" : 0,
					"#untuple" : 0,
					"fontname" : "Arial",
					"fontsize" : 10.0,
					"ftm_objref_conv" : 0,
					"ftm_scope" : 0,
					"id" : "obj-41",
					"maxclass" : "ftm.mess",
					"numinlets" : 2,
					"numoutlets" : 1,
					"outlettype" : [ "" ],
					"patching_rect" : [ 694.34906, 799.0, 111.771095, 16.0 ],
					"presentation_rect" : [ 694.34906, 799.0, 111.771095, 16.0 ],
					"text" : [ "_($1 set 0 0 ($1 get 1 0))" ]
				}

			}
, 			{
				"box" : 				{
					"fontname" : "Arial",
					"fontsize" : 10.0,
					"id" : "obj-40",
					"maxclass" : "newobj",
					"numinlets" : 1,
					"numoutlets" : 1,
					"outlettype" : [ "" ],
					"patching_rect" : [ 812.846375, 589.0, 79.0, 18.0 ],
					"saved_object_attributes" : 					{
						"ftm_objref_conv" : 0,
						"ftm_scope" : 0
					}
,
					"text" : "mnm.transpose"
				}

			}
, 			{
				"box" : 				{
					"#init" : "",
					"#loadbang" : 0,
					"#triggerall" : 0,
					"#untuple" : 0,
					"fontname" : "Arial",
					"fontsize" : 10.0,
					"ftm_objref_conv" : 0,
					"ftm_scope" : 0,
					"id" : "obj-38",
					"maxclass" : "ftm.mess",
					"numinlets" : 2,
					"numoutlets" : 1,
					"outlettype" : [ "" ],
					"patching_rect" : [ 694.34906, 770.0, 115.605461, 16.0 ],
					"presentation_rect" : [ 694.34906, 770.0, 115.605461, 16.0 ],
					"text" : [ "_(($1 mul $eql) pow 0.33)" ]
				}

			}
, 			{
				"box" : 				{
					"#init" : "",
					"#loadbang" : 0,
					"#triggerall" : 0,
					"#untuple" : 0,
					"fontname" : "Arial",
					"fontsize" : 10.0,
					"ftm_objref_conv" : 0,
					"ftm_scope" : 0,
					"id" : "obj-36",
					"maxclass" : "ftm.mess",
					"numinlets" : 2,
					"numoutlets" : 1,
					"outlettype" : [ "" ],
					"patching_rect" : [ 812.846375, 624.75, 62.834297, 16.0 ],
					"presentation_rect" : [ 812.846375, 624.75, 62.834297, 16.0 ],
					"text" : [ "_($eql set $1)" ]
				}

			}
, 			{
				"box" : 				{
					"fontname" : "Arial",
					"fontsize" : 10.0,
					"id" : "obj-18",
					"maxclass" : "message",
					"numinlets" : 2,
					"numoutlets" : 1,
					"outlettype" : [ "" ],
					"patching_rect" : [ 1105.846436, 256.0, 32.5, 16.0 ],
					"text" : "clear"
				}

			}
, 			{
				"box" : 				{
					"description" : "fmat",
					"editor_interface" : "matrix",
					"fontname" : "Arial",
					"fontsize" : 10.0,
					"ftm_objref_conv" : 0,
					"ftm_scope" : 0,
					"id" : "obj-21",
					"maxclass" : "ftm.object",
					"name" : "eql",
					"numinlets" : 1,
					"numoutlets" : 2,
					"outlettype" : [ "", "" ],
					"patching_rect" : [ 1105.846436, 284.0, 54.22168, 17.0 ],
					"persistence" : 0,
					"presentation_rect" : [ 1105.846436, 284.0, 54.22168, 17.0 ],
					"scope" : 0,
					"text" : "fmat"
				}

			}
, 			{
				"box" : 				{
					"fontname" : "Arial",
					"fontsize" : 10.0,
					"id" : "obj-12",
					"maxclass" : "newobj",
					"numinlets" : 2,
					"numoutlets" : 1,
					"outlettype" : [ "" ],
					"patching_rect" : [ 812.846375, 557.0, 97.0, 18.0 ],
					"text" : "sfa.hynek_eq_coeff"
				}

			}
, 			{
				"box" : 				{
					"id" : "obj-34",
					"maxclass" : "button",
					"numinlets" : 1,
					"numoutlets" : 1,
					"outlettype" : [ "bang" ],
					"patching_rect" : [ 740.846375, 457.0, 20.0, 20.0 ]
				}

			}
, 			{
				"box" : 				{
					"#init" : "",
					"#loadbang" : 0,
					"#triggerall" : 0,
					"#untuple" : 0,
					"fontname" : "Arial",
					"fontsize" : 10.0,
					"ftm_objref_conv" : 0,
					"ftm_scope" : 0,
					"id" : "obj-33",
					"maxclass" : "ftm.mess",
					"numinlets" : 2,
					"numoutlets" : 1,
					"outlettype" : [ "" ],
					"patching_rect" : [ 740.846375, 485.75, 34.457993, 16.0 ],
					"presentation_rect" : [ 740.846375, 485.75, 34.457993, 16.0 ],
					"text" : [ "_($wts)" ]
				}

			}
, 			{
				"box" : 				{
					"fontname" : "Arial",
					"fontsize" : 10.0,
					"id" : "obj-30",
					"maxclass" : "newobj",
					"numinlets" : 2,
					"numoutlets" : 1,
					"outlettype" : [ "" ],
					"patching_rect" : [ 587.34906, 530.0, 111.0, 18.0 ],
					"saved_object_attributes" : 					{
						"ftm_objref_conv" : 0,
						"ftm_scope" : 0
					}
,
					"text" : "mnm.xmul @swap yes"
				}

			}
, 			{
				"box" : 				{
					"fontname" : "Arial",
					"fontsize" : 10.0,
					"id" : "obj-26",
					"maxclass" : "newobj",
					"numinlets" : 1,
					"numoutlets" : 1,
					"outlettype" : [ "" ],
					"patching_rect" : [ 710.846375, 398.25, 80.0, 18.0 ],
					"text" : "sfa.fft2barkmxN"
				}

			}
, 			{
				"box" : 				{
					"fontname" : "Arial",
					"fontsize" : 10.0,
					"id" : "obj-17",
					"maxclass" : "message",
					"numinlets" : 2,
					"numoutlets" : 1,
					"outlettype" : [ "" ],
					"patching_rect" : [ 1105.846436, 195.0, 32.5, 16.0 ],
					"text" : "clear"
				}

			}
, 			{
				"box" : 				{
					"#init" : "",
					"#loadbang" : 0,
					"#triggerall" : 0,
					"#untuple" : 0,
					"fontname" : "Arial",
					"fontsize" : 10.0,
					"ftm_objref_conv" : 0,
					"ftm_scope" : 0,
					"id" : "obj-15",
					"maxclass" : "ftm.mess",
					"numinlets" : 2,
					"numoutlets" : 1,
					"outlettype" : [ "" ],
					"patching_rect" : [ 740.846375, 428.5, 64.490273, 16.0 ],
					"presentation_rect" : [ 740.846375, 428.5, 64.490273, 16.0 ],
					"text" : [ "_($wts set $1)" ]
				}

			}
, 			{
				"box" : 				{
					"description" : "fmat",
					"editor_interface" : "matrix",
					"fontname" : "Arial",
					"fontsize" : 10.0,
					"ftm_objref_conv" : 0,
					"ftm_scope" : 2,
					"id" : "obj-14",
					"maxclass" : "ftm.object",
					"name" : "wts",
					"numinlets" : 1,
					"numoutlets" : 2,
					"outlettype" : [ "", "" ],
					"patching_rect" : [ 1105.846436, 223.0, 56.224747, 17.0 ],
					"persistence" : 0,
					"presentation_rect" : [ 1105.846436, 223.0, 56.224747, 17.0 ],
					"scope" : 0,
					"text" : "fmat"
				}

			}
 ],
		"lines" : [ 			{
				"patchline" : 				{
					"destination" : [ "obj-12", 0 ],
					"disabled" : 0,
					"hidden" : 0,
					"source" : [ "obj-1", 0 ]
				}

			}
, 			{
				"patchline" : 				{
					"destination" : [ "obj-12", 0 ],
					"disabled" : 0,
					"hidden" : 0,
					"source" : [ "obj-10", 1 ]
				}

			}
, 			{
				"patchline" : 				{
					"destination" : [ "obj-19", 1 ],
					"disabled" : 0,
					"hidden" : 0,
					"source" : [ "obj-10", 1 ]
				}

			}
, 			{
				"patchline" : 				{
					"destination" : [ "obj-19", 0 ],
					"disabled" : 0,
					"hidden" : 0,
					"source" : [ "obj-10", 0 ]
				}

			}
, 			{
				"patchline" : 				{
					"destination" : [ "obj-40", 0 ],
					"disabled" : 0,
					"hidden" : 0,
					"source" : [ "obj-12", 0 ]
				}

			}
, 			{
				"patchline" : 				{
					"destination" : [ "obj-34", 0 ],
					"disabled" : 0,
					"hidden" : 0,
					"source" : [ "obj-15", 0 ]
				}

			}
, 			{
				"patchline" : 				{
					"destination" : [ "obj-14", 0 ],
					"disabled" : 0,
					"hidden" : 0,
					"source" : [ "obj-17", 0 ]
				}

			}
, 			{
				"patchline" : 				{
					"destination" : [ "obj-21", 0 ],
					"disabled" : 0,
					"hidden" : 0,
					"source" : [ "obj-18", 0 ]
				}

			}
, 			{
				"patchline" : 				{
					"destination" : [ "obj-26", 0 ],
					"disabled" : 0,
					"hidden" : 0,
					"source" : [ "obj-19", 0 ]
				}

			}
, 			{
				"patchline" : 				{
					"destination" : [ "obj-13", 0 ],
					"disabled" : 0,
					"hidden" : 0,
					"source" : [ "obj-2", 0 ]
				}

			}
, 			{
				"patchline" : 				{
					"destination" : [ "obj-15", 0 ],
					"disabled" : 0,
					"hidden" : 0,
					"source" : [ "obj-26", 0 ]
				}

			}
, 			{
				"patchline" : 				{
					"destination" : [ "obj-2", 0 ],
					"disabled" : 0,
					"hidden" : 0,
					"source" : [ "obj-30", 0 ]
				}

			}
, 			{
				"patchline" : 				{
					"destination" : [ "obj-9", 0 ],
					"disabled" : 0,
					"hidden" : 0,
					"source" : [ "obj-30", 0 ]
				}

			}
, 			{
				"patchline" : 				{
					"destination" : [ "obj-30", 1 ],
					"disabled" : 0,
					"hidden" : 0,
					"source" : [ "obj-33", 0 ]
				}

			}
, 			{
				"patchline" : 				{
					"destination" : [ "obj-33", 0 ],
					"disabled" : 0,
					"hidden" : 0,
					"source" : [ "obj-34", 0 ]
				}

			}
, 			{
				"patchline" : 				{
					"destination" : [ "obj-41", 0 ],
					"disabled" : 0,
					"hidden" : 0,
					"source" : [ "obj-38", 0 ]
				}

			}
, 			{
				"patchline" : 				{
					"destination" : [ "obj-36", 0 ],
					"disabled" : 0,
					"hidden" : 0,
					"source" : [ "obj-40", 0 ]
				}

			}
, 			{
				"patchline" : 				{
					"destination" : [ "obj-42", 0 ],
					"disabled" : 0,
					"hidden" : 0,
					"source" : [ "obj-41", 0 ]
				}

			}
, 			{
				"patchline" : 				{
					"destination" : [ "obj-8", 0 ],
					"disabled" : 0,
					"hidden" : 0,
					"source" : [ "obj-42", 0 ]
				}

			}
, 			{
				"patchline" : 				{
					"destination" : [ "obj-17", 0 ],
					"disabled" : 0,
					"hidden" : 0,
					"source" : [ "obj-5", 0 ]
				}

			}
, 			{
				"patchline" : 				{
					"destination" : [ "obj-18", 0 ],
					"disabled" : 0,
					"hidden" : 0,
					"source" : [ "obj-5", 0 ]
				}

			}
, 			{
				"patchline" : 				{
					"destination" : [ "obj-1", 0 ],
					"disabled" : 0,
					"hidden" : 0,
					"source" : [ "obj-56", 0 ]
				}

			}
, 			{
				"patchline" : 				{
					"destination" : [ "obj-75", 0 ],
					"disabled" : 0,
					"hidden" : 0,
					"source" : [ "obj-56", 0 ]
				}

			}
, 			{
				"patchline" : 				{
					"destination" : [ "obj-76", 0 ],
					"disabled" : 0,
					"hidden" : 0,
					"source" : [ "obj-56", 0 ]
				}

			}
, 			{
				"patchline" : 				{
					"destination" : [ "obj-30", 0 ],
					"disabled" : 0,
					"hidden" : 0,
					"source" : [ "obj-6", 0 ]
				}

			}
, 			{
				"patchline" : 				{
					"destination" : [ "obj-26", 0 ],
					"disabled" : 0,
					"hidden" : 0,
					"source" : [ "obj-75", 0 ]
				}

			}
, 			{
				"patchline" : 				{
					"destination" : [ "obj-12", 1 ],
					"disabled" : 0,
					"hidden" : 0,
					"source" : [ "obj-76", 0 ]
				}

			}
, 			{
				"patchline" : 				{
					"destination" : [ "obj-10", 0 ],
					"disabled" : 0,
					"hidden" : 0,
					"source" : [ "obj-83", 0 ]
				}

			}
, 			{
				"patchline" : 				{
					"destination" : [ "obj-5", 0 ],
					"disabled" : 0,
					"hidden" : 0,
					"source" : [ "obj-83", 0 ]
				}

			}
, 			{
				"patchline" : 				{
					"destination" : [ "obj-38", 0 ],
					"disabled" : 0,
					"hidden" : 0,
					"source" : [ "obj-9", 0 ]
				}

			}
 ],
		"dependency_cache" : [ 			{
				"name" : "sfa.fft2barkmxN.maxpat",
				"bootpath" : "/Users/stefanofasciani/Desktop/SFA-MaxLib/Abstractions",
				"patcherrelativepath" : ".",
				"type" : "JSON",
				"implicit" : 1
			}
, 			{
				"name" : "sfa.hz2bark.maxpat",
				"bootpath" : "/Users/stefanofasciani/Desktop/SFA-MaxLib/Abstractions",
				"patcherrelativepath" : ".",
				"type" : "JSON",
				"implicit" : 1
			}
, 			{
				"name" : "sfa.count_min_one.js",
				"bootpath" : "/Users/stefanofasciani/Desktop/SFA-MaxLib/Abstractions",
				"patcherrelativepath" : ".",
				"type" : "TEXT",
				"implicit" : 1
			}
, 			{
				"name" : "mnm.q.maxpat",
				"bootpath" : "/Applications/Max 6.1/Cycling '74/ftm-and-co/mnm-abstractions",
				"patcherrelativepath" : "../../../../../Applications/Max 6.1/Cycling '74/ftm-and-co/mnm-abstractions",
				"type" : "JSON",
				"implicit" : 1
			}
, 			{
				"name" : "sfa.hz2bark_vect.maxpat",
				"bootpath" : "/Users/stefanofasciani/Desktop/SFA-MaxLib/Abstractions",
				"patcherrelativepath" : ".",
				"type" : "JSON",
				"implicit" : 1
			}
, 			{
				"name" : "sfa.hynek_eq_coeff.maxpat",
				"bootpath" : "/Users/stefanofasciani/Desktop/SFA-MaxLib/Abstractions",
				"patcherrelativepath" : ".",
				"type" : "JSON",
				"implicit" : 1
			}
, 			{
				"name" : "sfa.bark2hz_vect.maxpat",
				"bootpath" : "/Users/stefanofasciani/Desktop/SFA-MaxLib/Abstractions",
				"patcherrelativepath" : ".",
				"type" : "JSON",
				"implicit" : 1
			}
, 			{
				"name" : "ftm.object.mxo",
				"type" : "iLaX"
			}
, 			{
				"name" : "ftm.mess.mxo",
				"type" : "iLaX"
			}
, 			{
				"name" : "ftm.copy.mxo",
				"type" : "iLaX"
			}
, 			{
				"name" : "mnm.minmax.mxo",
				"type" : "iLaX"
			}
, 			{
				"name" : "mnm.xmul.mxo",
				"type" : "iLaX"
			}
, 			{
				"name" : "mnm.transpose.mxo",
				"type" : "iLaX"
			}
 ]
	}

}
