{
	"patcher" : 	{
		"fileversion" : 1,
		"appversion" : 		{
			"major" : 6,
			"minor" : 1,
			"revision" : 8,
			"architecture" : "x86"
		}
,
		"rect" : [ 4.0, 44.0, 1525.0, 860.0 ],
		"bglocked" : 0,
		"openinpresentation" : 0,
		"default_fontsize" : 10.0,
		"default_fontface" : 0,
		"default_fontname" : "Arial",
		"gridonopen" : 0,
		"gridsize" : [ 15.0, 15.0 ],
		"gridsnaponopen" : 0,
		"statusbarvisible" : 2,
		"toolbarvisible" : 1,
		"boxanimatetime" : 200,
		"imprint" : 0,
		"enablehscroll" : 1,
		"enablevscroll" : 1,
		"devicewidth" : 0.0,
		"description" : "",
		"digest" : "",
		"tags" : "",
		"boxes" : [ 			{
				"box" : 				{
					"fontname" : "Verdana",
					"fontsize" : 10.0,
					"frgb" : 0.0,
					"id" : "obj-3",
					"linecount" : 2,
					"maxclass" : "comment",
					"numinlets" : 1,
					"numoutlets" : 0,
					"patching_rect" : [ 640.574158, 1564.0, 125.062408, 31.0 ],
					"text" : "rasta-plp coeficients fmat vector"
				}

			}
, 			{
				"box" : 				{
					"fontname" : "Verdana",
					"fontsize" : 10.0,
					"frgb" : 0.0,
					"id" : "obj-27",
					"linecount" : 17,
					"maxclass" : "comment",
					"numinlets" : 1,
					"numoutlets" : 0,
					"patching_rect" : [ 12.0, 618.0, 570.0, 213.0 ],
					"text" : "FTM abstraction\ncomputes the PLP or RASTA-PLP coefficient from an audio frame in the time domain\n\nThe first inlet input is the fmat vector containing the audio frame\nThe second inlet input select the computation of PLP (=0) or RASTA-PLP (=1)\nThe thirs inlet input is the feature order scalar\nThe fourth inlet input is the audio frame/window size\nThe fifth inlet input is sampling rate\nThe sixth inlet input bang reset the rasta filter\nThe seventh inlet input bang initialize the computation (mandatory anytime any parameter change)\n\nThe outlet fmat vector contains the PLP or RASTA-PLP coefficients\n\nThis object is part of the Max porting of the function rastaplp.m from Daniel P. W. Ellis \"PLP and RASTA (and MFCC, and inversion) in MATLAB\nhttp://www.ee.columbia.edu/~dpwe/resources/matlab/rastamat/\nporting of rastaplp.m"
				}

			}
, 			{
				"box" : 				{
					"fontname" : "Verdana",
					"fontsize" : 24.0,
					"frgb" : 0.0,
					"id" : "obj-28",
					"maxclass" : "comment",
					"numinlets" : 1,
					"numoutlets" : 0,
					"patching_rect" : [ 12.0, 582.0, 239.0, 36.0 ],
					"text" : "sfa.rasta-plp"
				}

			}
, 			{
				"box" : 				{
					"fontname" : "Arial",
					"fontsize" : 10.0,
					"frgb" : 0.0,
					"id" : "obj-2",
					"linecount" : 47,
					"maxclass" : "comment",
					"numinlets" : 1,
					"numoutlets" : 0,
					"patching_rect" : [ 12.0, 18.0, 430.0, 532.0 ],
					"text" : "This file is part of the Voice-Controlled Interface for Digital Musical Instruments (VCI4DMI).\n\nThis patch and the related sub patches are based on the porting of the\nfunction rastaplp.m from\nDaniel P. W. Ellis \"PLP and RASTA (and MFCC, and inversion) in Matlab\nhttp://www.ee.columbia.edu/~dpwe/resources/matlab/rastamat/\nwhich is based on:\nH. Hermansky, \"Perceptual linear predictive (PLP) analysis of speech\", J. Acoust. Soc. Am., vol. 87, no. 4, pp. 1738-1752, Apr. 1990.\nH. Hermansky and N. Morgan, \"RASTA processing of speech\", IEEE Trans. on Speech and Audio Proc., vol. 2, no. 4, pp. 578-589, Oct. 1994.\n\nThe Voice-Controlled Interface for Digital Musical Instruments (VCI4DMI) \nis a collection of MAX patches, MAX externals and MATLAB functions \nimplementing ad-hoc mappings to control an arbirtary number of real-valued\ninstrument parameters by variation of the voice timbre.\nThe VCI4DMI can be obtained at http://stefanofasciani.com/vci4dmi.html\nVCI4DMI Copyright (C) 2014 Stefano Fasciani, National University of Singapore\nInquiries: stefanofasciani@stefanofasciani.com\n\nThe VCI4DMI is free software: you can redistribute it and/or modify\nit under the terms of the GNU Lesser General Public License as published by\nthe Free Software Foundation, either version 3 of the License, or\n(at your option) any later version.\n\nThe VCI4DMI is distributed in the hope that it will be useful,\nbut WITHOUT ANY WARRANTY; without even the implied warranty of\nMERCHANTABILITY or FITNESS FOR A PARTICULAR PURPOSE.  See the\nGNU Less General Public License for more details.\n\nYou should have received a copy of the GNU Lesser General Public License\nalong with Foobar.  If not, see <http://www.gnu.org/licenses/>.\n\nIf you use the VCI4DMI or any part of it in any program or publication,\nplease acknowledge its authors by adding a reference any of these pubblications:\n\nFasciani, S. and Wyse, L. 2012. \"Adapting general purpose interfaces to synthesis\nengines using unsupervised dimensionality reduction techniques and inverse mapping\nfrom features to parameters\". In Proceedings of the 2012 International Computer\nMusic Conference. Ljubljana, Slovenia.\n\nFasciani, S. and Wyse, L. 2013. \"A Self-Organizing Gesture Map for a\nVoice-Controlled Instrument Interface. In Proceedings of the 13th conference\non New Interfaces for Musical Expression\". Daejeon, Korea.\n\nFasciani, S. 2014. \"Voice-Controlled Interface for Digital Musical Instruments\".\nPhD Thesis, National University of Singapore."
				}

			}
, 			{
				"box" : 				{
					"fontname" : "Arial",
					"fontsize" : 10.0,
					"id" : "obj-1",
					"maxclass" : "newobj",
					"numinlets" : 2,
					"numoutlets" : 1,
					"outlettype" : [ "" ],
					"patching_rect" : [ 610.34906, 1461.0, 71.0, 18.0 ],
					"saved_object_attributes" : 					{
						"ftm_objref_conv" : 0,
						"ftm_scope" : 1
					}
,
					"text" : "ftm.copy fmat"
				}

			}
, 			{
				"box" : 				{
					"id" : "obj-25",
					"maxclass" : "button",
					"numinlets" : 1,
					"numoutlets" : 1,
					"outlettype" : [ "bang" ],
					"patching_rect" : [ 1516.0, 223.0, 20.0, 20.0 ]
				}

			}
, 			{
				"box" : 				{
					"fontname" : "Verdana",
					"fontsize" : 10.0,
					"frgb" : 0.0,
					"id" : "obj-23",
					"maxclass" : "comment",
					"numinlets" : 1,
					"numoutlets" : 0,
					"patching_rect" : [ 1547.846436, 155.5, 75.0, 19.0 ],
					"text" : "Init"
				}

			}
, 			{
				"box" : 				{
					"comment" : "init bang",
					"id" : "obj-24",
					"maxclass" : "inlet",
					"numinlets" : 0,
					"numoutlets" : 1,
					"outlettype" : [ "" ],
					"patching_rect" : [ 1547.846436, 183.5, 25.0, 25.0 ]
				}

			}
, 			{
				"box" : 				{
					"fontname" : "Arial",
					"fontsize" : 10.0,
					"id" : "obj-94",
					"maxclass" : "newobj",
					"numinlets" : 1,
					"numoutlets" : 1,
					"outlettype" : [ "bang" ],
					"patching_rect" : [ 871.34906, 1369.0, 52.0, 18.0 ],
					"text" : "loadbang"
				}

			}
, 			{
				"box" : 				{
					"fontname" : "Verdana",
					"fontsize" : 10.0,
					"frgb" : 0.0,
					"id" : "obj-93",
					"linecount" : 3,
					"maxclass" : "comment",
					"numinlets" : 1,
					"numoutlets" : 0,
					"patching_rect" : [ 635.34906, 143.5, 73.0, 43.0 ],
					"text" : "input audio frame fmat vector"
				}

			}
, 			{
				"box" : 				{
					"fontname" : "Verdana",
					"fontsize" : 10.0,
					"frgb" : 0.0,
					"id" : "obj-92",
					"maxclass" : "comment",
					"numinlets" : 1,
					"numoutlets" : 0,
					"patching_rect" : [ 804.846375, 155.5, 70.0, 19.0 ],
					"text" : "do rasta"
				}

			}
, 			{
				"box" : 				{
					"fontname" : "Verdana",
					"fontsize" : 10.0,
					"frgb" : 0.0,
					"id" : "obj-91",
					"maxclass" : "comment",
					"numinlets" : 1,
					"numoutlets" : 0,
					"patching_rect" : [ 1019.846375, 155.5, 69.0, 19.0 ],
					"text" : "order"
				}

			}
, 			{
				"box" : 				{
					"fontname" : "Verdana",
					"fontsize" : 10.0,
					"frgb" : 0.0,
					"id" : "obj-88",
					"maxclass" : "comment",
					"numinlets" : 1,
					"numoutlets" : 0,
					"patching_rect" : [ 1143.346436, 155.5, 71.0, 19.0 ],
					"text" : "window size"
				}

			}
, 			{
				"box" : 				{
					"fontname" : "Verdana",
					"fontsize" : 10.0,
					"frgb" : 0.0,
					"id" : "obj-87",
					"maxclass" : "comment",
					"numinlets" : 1,
					"numoutlets" : 0,
					"patching_rect" : [ 1287.680664, 155.5, 71.0, 19.0 ],
					"text" : "sample rate"
				}

			}
, 			{
				"box" : 				{
					"fontname" : "Verdana",
					"fontsize" : 10.0,
					"frgb" : 0.0,
					"id" : "obj-4",
					"maxclass" : "comment",
					"numinlets" : 1,
					"numoutlets" : 0,
					"patching_rect" : [ 1432.830322, 155.5, 70.0, 19.0 ],
					"text" : "reset"
				}

			}
, 			{
				"box" : 				{
					"comment" : "reset rastafilt",
					"id" : "obj-85",
					"maxclass" : "inlet",
					"numinlets" : 0,
					"numoutlets" : 1,
					"outlettype" : [ "" ],
					"patching_rect" : [ 1432.830322, 183.5, 25.0, 25.0 ]
				}

			}
, 			{
				"box" : 				{
					"comment" : "sample rate",
					"id" : "obj-84",
					"maxclass" : "inlet",
					"numinlets" : 0,
					"numoutlets" : 1,
					"outlettype" : [ "" ],
					"patching_rect" : [ 1287.680664, 183.5, 25.0, 25.0 ]
				}

			}
, 			{
				"box" : 				{
					"comment" : "window size",
					"id" : "obj-83",
					"maxclass" : "inlet",
					"numinlets" : 0,
					"numoutlets" : 1,
					"outlettype" : [ "" ],
					"patching_rect" : [ 1143.346436, 183.5, 25.0, 25.0 ]
				}

			}
, 			{
				"box" : 				{
					"comment" : "order",
					"id" : "obj-79",
					"maxclass" : "inlet",
					"numinlets" : 0,
					"numoutlets" : 1,
					"outlettype" : [ "" ],
					"patching_rect" : [ 1019.846375, 183.5, 25.0, 25.0 ]
				}

			}
, 			{
				"box" : 				{
					"fontname" : "Arial",
					"fontsize" : 10.0,
					"id" : "obj-76",
					"maxclass" : "message",
					"numinlets" : 2,
					"numoutlets" : 1,
					"outlettype" : [ "" ],
					"patching_rect" : [ 1312.680664, 226.0, 38.0, 16.0 ],
					"text" : "16000"
				}

			}
, 			{
				"box" : 				{
					"fontname" : "Arial",
					"fontsize" : 10.0,
					"id" : "obj-75",
					"maxclass" : "message",
					"numinlets" : 2,
					"numoutlets" : 1,
					"outlettype" : [ "" ],
					"patching_rect" : [ 1182.846436, 226.0, 32.5, 16.0 ],
					"text" : "2048"
				}

			}
, 			{
				"box" : 				{
					"fontname" : "Arial",
					"fontsize" : 10.0,
					"id" : "obj-61",
					"maxclass" : "message",
					"numinlets" : 2,
					"numoutlets" : 1,
					"outlettype" : [ "" ],
					"patching_rect" : [ 1044.834351, 226.0, 32.5, 16.0 ],
					"text" : "18"
				}

			}
, 			{
				"box" : 				{
					"fontname" : "Arial",
					"fontsize" : 10.0,
					"id" : "obj-56",
					"maxclass" : "newobj",
					"numinlets" : 1,
					"numoutlets" : 1,
					"outlettype" : [ "bang" ],
					"patching_rect" : [ 1102.834351, 10.0, 52.0, 18.0 ],
					"text" : "loadbang"
				}

			}
, 			{
				"box" : 				{
					"fontname" : "Arial",
					"fontsize" : 10.0,
					"id" : "obj-29",
					"maxclass" : "message",
					"numinlets" : 2,
					"numoutlets" : 1,
					"outlettype" : [ "" ],
					"patching_rect" : [ 853.70752, 226.0, 32.5, 16.0 ],
					"text" : "0"
				}

			}
, 			{
				"box" : 				{
					"comment" : "output vector",
					"id" : "obj-13",
					"maxclass" : "outlet",
					"numinlets" : 1,
					"numoutlets" : 0,
					"patching_rect" : [ 610.34906, 1564.0, 25.0, 25.0 ]
				}

			}
, 			{
				"box" : 				{
					"comment" : "do rasta (1=yes,0=no)",
					"id" : "obj-7",
					"maxclass" : "inlet",
					"numinlets" : 0,
					"numoutlets" : 1,
					"outlettype" : [ "" ],
					"patching_rect" : [ 804.846375, 183.5, 25.0, 25.0 ]
				}

			}
, 			{
				"box" : 				{
					"comment" : "input vector",
					"id" : "obj-6",
					"maxclass" : "inlet",
					"numinlets" : 0,
					"numoutlets" : 1,
					"outlettype" : [ "" ],
					"patching_rect" : [ 610.34906, 183.5, 25.0, 25.0 ]
				}

			}
, 			{
				"box" : 				{
					"id" : "obj-74",
					"maxclass" : "button",
					"numinlets" : 1,
					"numoutlets" : 1,
					"outlettype" : [ "bang" ],
					"patching_rect" : [ 866.20752, 516.0, 20.0, 20.0 ]
				}

			}
, 			{
				"box" : 				{
					"fontname" : "Arial",
					"fontsize" : 10.0,
					"id" : "obj-73",
					"maxclass" : "newobj",
					"numinlets" : 1,
					"numoutlets" : 1,
					"outlettype" : [ "" ],
					"patching_rect" : [ 714.486938, 663.0, 59.0, 18.0 ],
					"saved_object_attributes" : 					{
						"ftm_objref_conv" : 0,
						"ftm_scope" : 0
					}
,
					"text" : "sfa.rastafilt"
				}

			}
, 			{
				"box" : 				{
					"fontname" : "Arial",
					"fontsize" : 10.0,
					"id" : "obj-72",
					"maxclass" : "message",
					"numinlets" : 2,
					"numoutlets" : 1,
					"outlettype" : [ "" ],
					"patching_rect" : [ 804.846375, 616.75, 53.0, 16.0 ],
					"text" : "setnfilt $1"
				}

			}
, 			{
				"box" : 				{
					"#init" : "",
					"#loadbang" : 0,
					"#triggerall" : 0,
					"#untuple" : 0,
					"fontname" : "Arial",
					"fontsize" : 10.0,
					"ftm_objref_conv" : 0,
					"ftm_scope" : 0,
					"id" : "obj-90",
					"maxclass" : "ftm.mess",
					"numinlets" : 2,
					"numoutlets" : 1,
					"outlettype" : [ "" ],
					"patching_rect" : [ 714.486938, 716.0, 43.9249, 16.0 ],
					"presentation_rect" : [ 714.486938, 716.0, 43.9249, 16.0 ],
					"text" : [ "_($1 exp)" ]
				}

			}
, 			{
				"box" : 				{
					"#init" : "",
					"#loadbang" : 0,
					"#triggerall" : 0,
					"#untuple" : 0,
					"fontname" : "Arial",
					"fontsize" : 10.0,
					"ftm_objref_conv" : 0,
					"ftm_scope" : 0,
					"id" : "obj-89",
					"maxclass" : "ftm.mess",
					"numinlets" : 2,
					"numoutlets" : 1,
					"outlettype" : [ "" ],
					"patching_rect" : [ 714.486938, 592.0, 41.145401, 16.0 ],
					"presentation_rect" : [ 714.486938, 592.0, 41.145401, 16.0 ],
					"text" : [ "_($1 log)" ]
				}

			}
, 			{
				"box" : 				{
					"fontname" : "Arial",
					"fontsize" : 10.0,
					"id" : "obj-86",
					"maxclass" : "newobj",
					"numinlets" : 2,
					"numoutlets" : 1,
					"outlettype" : [ "int" ],
					"patching_rect" : [ 804.846375, 516.0, 32.5, 18.0 ],
					"text" : "+ 1"
				}

			}
, 			{
				"box" : 				{
					"fontname" : "Arial",
					"fontsize" : 10.0,
					"id" : "obj-78",
					"maxclass" : "newobj",
					"numinlets" : 2,
					"numoutlets" : 2,
					"outlettype" : [ "", "" ],
					"patching_rect" : [ 610.34906, 554.0, 38.0, 18.0 ],
					"text" : "gate 2"
				}

			}
, 			{
				"box" : 				{
					"fontname" : "Arial",
					"fontsize" : 10.0,
					"id" : "obj-71",
					"maxclass" : "message",
					"numinlets" : 2,
					"numoutlets" : 1,
					"outlettype" : [ "" ],
					"patching_rect" : [ 776.34906, 1443.0, 50.0, 16.0 ],
					"text" : "insize $1"
				}

			}
, 			{
				"box" : 				{
					"fontname" : "Arial",
					"fontsize" : 10.0,
					"id" : "obj-70",
					"maxclass" : "message",
					"numinlets" : 2,
					"numoutlets" : 1,
					"outlettype" : [ "" ],
					"patching_rect" : [ 871.34906, 1443.0, 52.0, 16.0 ],
					"text" : "factor 0.6"
				}

			}
, 			{
				"box" : 				{
					"fontname" : "Arial",
					"fontsize" : 10.0,
					"id" : "obj-69",
					"maxclass" : "newobj",
					"numinlets" : 1,
					"numoutlets" : 2,
					"outlettype" : [ "", "" ],
					"patching_rect" : [ 610.34906, 1501.0, 46.0, 18.0 ],
					"saved_object_attributes" : 					{
						"ftm_objref_conv" : 0,
						"ftm_scope" : 0
					}
,
					"text" : "gbr.lifter"
				}

			}
, 			{
				"box" : 				{
					"fontname" : "Arial",
					"fontsize" : 10.0,
					"id" : "obj-66",
					"maxclass" : "newobj",
					"numinlets" : 2,
					"numoutlets" : 1,
					"outlettype" : [ "int" ],
					"patching_rect" : [ 823.790283, 1294.0, 32.5, 18.0 ],
					"text" : "+ 1"
				}

			}
, 			{
				"box" : 				{
					"fontname" : "Arial",
					"fontsize" : 10.0,
					"id" : "obj-62",
					"maxclass" : "message",
					"numinlets" : 2,
					"numoutlets" : 1,
					"outlettype" : [ "" ],
					"patching_rect" : [ 727.34906, 1369.0, 61.0, 16.0 ],
					"text" : "setorder $1"
				}

			}
, 			{
				"box" : 				{
					"fontname" : "Arial",
					"fontsize" : 10.0,
					"id" : "obj-54",
					"maxclass" : "newobj",
					"numinlets" : 1,
					"numoutlets" : 1,
					"outlettype" : [ "" ],
					"patching_rect" : [ 610.34906, 1429.0, 61.0, 18.0 ],
					"saved_object_attributes" : 					{
						"ftm_objref_conv" : 0,
						"ftm_scope" : 0
					}
,
					"text" : "sfa.lpc2cep"
				}

			}
, 			{
				"box" : 				{
					"#init" : "",
					"#loadbang" : 0,
					"#triggerall" : 0,
					"#untuple" : 0,
					"fontname" : "Arial",
					"fontsize" : 10.0,
					"ftm_objref_conv" : 0,
					"ftm_scope" : 0,
					"id" : "obj-44",
					"maxclass" : "ftm.mess",
					"numinlets" : 2,
					"numoutlets" : 1,
					"outlettype" : [ "" ],
					"patching_rect" : [ 610.34906, 1362.0, 54.49091, 16.0 ],
					"presentation_rect" : [ 610.34906, 1362.0, 54.49091, 16.0 ],
					"text" : [ "_($1 div $2)" ]
				}

			}
, 			{
				"box" : 				{
					"fontname" : "Arial",
					"fontsize" : 10.0,
					"id" : "obj-65",
					"maxclass" : "newobj",
					"numinlets" : 1,
					"numoutlets" : 2,
					"outlettype" : [ "", "" ],
					"patching_rect" : [ 610.34906, 1275.0, 63.0, 18.0 ],
					"saved_object_attributes" : 					{
						"ftm_objref_conv" : 0,
						"ftm_scope" : 0
					}
,
					"text" : "sfa.levinson"
				}

			}
, 			{
				"box" : 				{
					"fontname" : "Arial",
					"fontsize" : 10.0,
					"id" : "obj-64",
					"maxclass" : "message",
					"numinlets" : 2,
					"numoutlets" : 1,
					"outlettype" : [ "" ],
					"patching_rect" : [ 756.34906, 1239.0, 61.0, 16.0 ],
					"text" : "setorder $1"
				}

			}
, 			{
				"box" : 				{
					"#init" : "",
					"#loadbang" : 0,
					"#triggerall" : 0,
					"#untuple" : 0,
					"fontname" : "Arial",
					"fontsize" : 10.0,
					"ftm_objref_conv" : 0,
					"ftm_scope" : 0,
					"id" : "obj-60",
					"maxclass" : "ftm.mess",
					"numinlets" : 2,
					"numoutlets" : 1,
					"outlettype" : [ "" ],
					"patching_rect" : [ 610.34906, 1160.0, 54.49091, 16.0 ],
					"presentation_rect" : [ 610.34906, 1160.0, 54.49091, 16.0 ],
					"text" : [ "_($1 div $2)" ]
				}

			}
, 			{
				"box" : 				{
					"id" : "obj-57",
					"maxclass" : "button",
					"numinlets" : 1,
					"numoutlets" : 1,
					"outlettype" : [ "bang" ],
					"patching_rect" : [ 1380.541504, 687.75, 20.0, 20.0 ]
				}

			}
, 			{
				"box" : 				{
					"#init" : "",
					"#loadbang" : 0,
					"#triggerall" : 0,
					"#untuple" : 0,
					"fontname" : "Arial",
					"fontsize" : 10.0,
					"ftm_objref_conv" : 0,
					"ftm_scope" : 0,
					"id" : "obj-58",
					"maxclass" : "ftm.mess",
					"numinlets" : 2,
					"numoutlets" : 1,
					"outlettype" : [ "" ],
					"patching_rect" : [ 1380.541504, 718.5, 47.256393, 16.0 ],
					"presentation_rect" : [ 1380.541504, 718.5, 47.256393, 16.0 ],
					"text" : [ "_($re_idft)" ]
				}

			}
, 			{
				"box" : 				{
					"fontname" : "Arial",
					"fontsize" : 10.0,
					"id" : "obj-55",
					"maxclass" : "newobj",
					"numinlets" : 2,
					"numoutlets" : 1,
					"outlettype" : [ "" ],
					"patching_rect" : [ 610.34906, 1105.0, 111.0, 18.0 ],
					"saved_object_attributes" : 					{
						"ftm_objref_conv" : 0,
						"ftm_scope" : 0
					}
,
					"text" : "mnm.xmul @swap yes"
				}

			}
, 			{
				"box" : 				{
					"#init" : "",
					"#loadbang" : 0,
					"#triggerall" : 0,
					"#untuple" : 0,
					"fontname" : "Arial",
					"fontsize" : 10.0,
					"ftm_objref_conv" : 0,
					"ftm_scope" : 0,
					"id" : "obj-50",
					"maxclass" : "ftm.mess",
					"numinlets" : 2,
					"numoutlets" : 1,
					"outlettype" : [ "" ],
					"patching_rect" : [ 1380.541504, 657.5, 77.288673, 16.0 ],
					"presentation_rect" : [ 1380.541504, 657.5, 77.288673, 16.0 ],
					"text" : [ "_($re_idft set $1)" ]
				}

			}
, 			{
				"box" : 				{
					"fontname" : "Arial",
					"fontsize" : 10.0,
					"id" : "obj-45",
					"maxclass" : "message",
					"numinlets" : 2,
					"numoutlets" : 1,
					"outlettype" : [ "" ],
					"patching_rect" : [ 1598.846436, 321.0, 32.5, 16.0 ],
					"text" : "clear"
				}

			}
, 			{
				"box" : 				{
					"description" : "fmat",
					"editor_interface" : "matrix",
					"fontname" : "Arial",
					"fontsize" : 10.0,
					"ftm_objref_conv" : 0,
					"ftm_scope" : 0,
					"id" : "obj-46",
					"maxclass" : "ftm.object",
					"name" : "re_idft",
					"numinlets" : 1,
					"numoutlets" : 2,
					"outlettype" : [ "", "" ],
					"patching_rect" : [ 1598.846436, 349.0, 69.224747, 17.0 ],
					"persistence" : 0,
					"presentation_rect" : [ 1598.846436, 349.0, 69.224747, 17.0 ],
					"scope" : 0,
					"text" : "fmat"
				}

			}
, 			{
				"box" : 				{
					"#init" : "",
					"#loadbang" : 0,
					"#triggerall" : 0,
					"#untuple" : 0,
					"fontname" : "Arial",
					"fontsize" : 10.0,
					"ftm_objref_conv" : 0,
					"ftm_scope" : 0,
					"id" : "obj-19",
					"maxclass" : "ftm.mess",
					"numinlets" : 2,
					"numoutlets" : 1,
					"outlettype" : [ "" ],
					"patching_rect" : [ 1380.541504, 568.75, 68.661972, 16.0 ],
					"presentation_rect" : [ 1380.541504, 568.75, 68.661972, 16.0 ],
					"text" : [ "_($1 + ($1 - 2))" ]
				}

			}
, 			{
				"box" : 				{
					"fontname" : "Arial",
					"fontsize" : 10.0,
					"id" : "obj-8",
					"maxclass" : "newobj",
					"numinlets" : 1,
					"numoutlets" : 1,
					"outlettype" : [ "" ],
					"patching_rect" : [ 1380.541504, 614.75, 89.0, 18.0 ],
					"text" : "sfa.idft_real_coeff"
				}

			}
, 			{
				"box" : 				{
					"#init" : "",
					"#loadbang" : 0,
					"#triggerall" : 0,
					"#untuple" : 0,
					"fontname" : "Arial",
					"fontsize" : 10.0,
					"ftm_objref_conv" : 0,
					"ftm_scope" : 0,
					"id" : "obj-22",
					"maxclass" : "ftm.mess",
					"numinlets" : 2,
					"numoutlets" : 1,
					"outlettype" : [ "" ],
					"patching_rect" : [ 610.34906, 450.0, 142.707077, 16.0 ],
					"presentation_rect" : [ 610.34906, 450.0, 142.707077, 16.0 ],
					"text" : [ "_(((($1 fft) cabs) pow 2) add $2)" ]
				}

			}
, 			{
				"box" : 				{
					"#init" : "",
					"#loadbang" : 0,
					"#triggerall" : 0,
					"#untuple" : 0,
					"fontname" : "Arial",
					"fontsize" : 10.0,
					"ftm_objref_conv" : 0,
					"ftm_scope" : 0,
					"id" : "obj-63",
					"maxclass" : "ftm.mess",
					"numinlets" : 2,
					"numoutlets" : 1,
					"outlettype" : [ "" ],
					"patching_rect" : [ 610.34906, 1216.0, 133.450226, 16.0 ],
					"presentation_rect" : [ 610.34906, 1216.0, 133.450226, 16.0 ],
					"text" : [ "_($1 delete $2 ($1 rows) - $2)" ]
				}

			}
, 			{
				"box" : 				{
					"#init" : "",
					"#loadbang" : 0,
					"#triggerall" : 0,
					"#untuple" : 0,
					"fontname" : "Arial",
					"fontsize" : 10.0,
					"ftm_objref_conv" : 0,
					"ftm_scope" : 0,
					"id" : "obj-53",
					"maxclass" : "ftm.mess",
					"numinlets" : 2,
					"numoutlets" : 1,
					"outlettype" : [ "" ],
					"patching_rect" : [ 610.34906, 1049.0, 75.085587, 16.0 ],
					"presentation_rect" : [ 610.34906, 1049.0, 75.085587, 16.0 ],
					"text" : [ "_($1 append $2)" ]
				}

			}
, 			{
				"box" : 				{
					"#init" : "",
					"#loadbang" : 0,
					"#triggerall" : 0,
					"#untuple" : 0,
					"fontname" : "Arial",
					"fontsize" : 10.0,
					"ftm_objref_conv" : 0,
					"ftm_scope" : 0,
					"id" : "obj-52",
					"maxclass" : "ftm.mess",
					"numinlets" : 2,
					"numoutlets" : 1,
					"outlettype" : [ "" ],
					"patching_rect" : [ 704.482666, 1006.0, 61.153896, 16.0 ],
					"presentation_rect" : [ 704.482666, 1006.0, 61.153896, 16.0 ],
					"text" : [ "_($1 reverse)" ]
				}

			}
, 			{
				"box" : 				{
					"#init" : "",
					"#loadbang" : 0,
					"#triggerall" : 0,
					"#untuple" : 0,
					"fontname" : "Arial",
					"fontsize" : 10.0,
					"ftm_objref_conv" : 0,
					"ftm_scope" : 0,
					"id" : "obj-51",
					"maxclass" : "ftm.mess",
					"numinlets" : 2,
					"numoutlets" : 1,
					"outlettype" : [ "" ],
					"patching_rect" : [ 704.482666, 963.0, 151.807617, 16.0 ],
					"presentation_rect" : [ 704.482666, 963.0, 151.807617, 16.0 ],
					"text" : [ "_(($1 delete 0 1) delete ($2 - 2) 1)" ]
				}

			}
, 			{
				"box" : 				{
					"fontname" : "Arial",
					"fontsize" : 10.0,
					"id" : "obj-49",
					"maxclass" : "newobj",
					"numinlets" : 2,
					"numoutlets" : 1,
					"outlettype" : [ "" ],
					"patching_rect" : [ 704.482666, 916.25, 71.0, 18.0 ],
					"saved_object_attributes" : 					{
						"ftm_objref_conv" : 0,
						"ftm_scope" : 0
					}
,
					"text" : "ftm.copy fmat"
				}

			}
, 			{
				"box" : 				{
					"fontname" : "Arial",
					"fontsize" : 10.0,
					"id" : "obj-31",
					"maxclass" : "newobj",
					"numinlets" : 2,
					"numoutlets" : 1,
					"outlettype" : [ "" ],
					"patching_rect" : [ 610.34906, 916.25, 71.0, 18.0 ],
					"saved_object_attributes" : 					{
						"ftm_objref_conv" : 0,
						"ftm_scope" : 0
					}
,
					"text" : "ftm.copy fmat"
				}

			}
, 			{
				"box" : 				{
					"#init" : "",
					"#loadbang" : 0,
					"#triggerall" : 0,
					"#untuple" : 0,
					"fontname" : "Arial",
					"fontsize" : 10.0,
					"ftm_objref_conv" : 0,
					"ftm_scope" : 0,
					"id" : "obj-43",
					"maxclass" : "ftm.mess",
					"numinlets" : 2,
					"numoutlets" : 1,
					"outlettype" : [ "" ],
					"patching_rect" : [ 837.290283, 835.0, 48.917255, 16.0 ],
					"presentation_rect" : [ 837.290283, 835.0, 48.917255, 16.0 ],
					"text" : [ "_($1 rows)" ]
				}

			}
, 			{
				"box" : 				{
					"#init" : "",
					"#loadbang" : 0,
					"#triggerall" : 0,
					"#untuple" : 0,
					"fontname" : "Arial",
					"fontsize" : 10.0,
					"ftm_objref_conv" : 0,
					"ftm_scope" : 0,
					"id" : "obj-42",
					"maxclass" : "ftm.mess",
					"numinlets" : 2,
					"numoutlets" : 1,
					"outlettype" : [ "" ],
					"patching_rect" : [ 610.34906, 871.0, 165.133591, 16.0 ],
					"presentation_rect" : [ 610.34906, 871.0, 165.133591, 16.0 ],
					"text" : [ "_($1 set ($2 - 1) 0 ($1 get ($2 - 2) 0))" ]
				}

			}
, 			{
				"box" : 				{
					"#init" : "",
					"#loadbang" : 0,
					"#triggerall" : 0,
					"#untuple" : 0,
					"fontname" : "Arial",
					"fontsize" : 10.0,
					"ftm_objref_conv" : 0,
					"ftm_scope" : 0,
					"id" : "obj-41",
					"maxclass" : "ftm.mess",
					"numinlets" : 2,
					"numoutlets" : 1,
					"outlettype" : [ "" ],
					"patching_rect" : [ 610.34906, 789.0, 111.771095, 16.0 ],
					"presentation_rect" : [ 610.34906, 789.0, 111.771095, 16.0 ],
					"text" : [ "_($1 set 0 0 ($1 get 1 0))" ]
				}

			}
, 			{
				"box" : 				{
					"fontname" : "Arial",
					"fontsize" : 10.0,
					"id" : "obj-40",
					"maxclass" : "newobj",
					"numinlets" : 1,
					"numoutlets" : 1,
					"outlettype" : [ "" ],
					"patching_rect" : [ 1227.846436, 532.0, 79.0, 18.0 ],
					"saved_object_attributes" : 					{
						"ftm_objref_conv" : 0,
						"ftm_scope" : 0
					}
,
					"text" : "mnm.transpose"
				}

			}
, 			{
				"box" : 				{
					"#init" : "",
					"#loadbang" : 0,
					"#triggerall" : 0,
					"#untuple" : 0,
					"fontname" : "Arial",
					"fontsize" : 10.0,
					"ftm_objref_conv" : 0,
					"ftm_scope" : 0,
					"id" : "obj-38",
					"maxclass" : "ftm.mess",
					"numinlets" : 2,
					"numoutlets" : 1,
					"outlettype" : [ "" ],
					"patching_rect" : [ 610.34906, 760.0, 115.654579, 16.0 ],
					"presentation_rect" : [ 610.34906, 760.0, 115.654579, 16.0 ],
					"text" : [ "_(($1 mul $eql) pow 0.33)" ]
				}

			}
, 			{
				"box" : 				{
					"#init" : "",
					"#loadbang" : 0,
					"#triggerall" : 0,
					"#untuple" : 0,
					"fontname" : "Arial",
					"fontsize" : 10.0,
					"ftm_objref_conv" : 0,
					"ftm_scope" : 0,
					"id" : "obj-36",
					"maxclass" : "ftm.mess",
					"numinlets" : 2,
					"numoutlets" : 1,
					"outlettype" : [ "" ],
					"patching_rect" : [ 1227.846436, 567.75, 62.834297, 16.0 ],
					"presentation_rect" : [ 1227.846436, 567.75, 62.834297, 16.0 ],
					"text" : [ "_($eql set $1)" ]
				}

			}
, 			{
				"box" : 				{
					"fontname" : "Arial",
					"fontsize" : 10.0,
					"id" : "obj-18",
					"maxclass" : "message",
					"numinlets" : 2,
					"numoutlets" : 1,
					"outlettype" : [ "" ],
					"patching_rect" : [ 1456.846436, 376.75, 32.5, 16.0 ],
					"text" : "clear"
				}

			}
, 			{
				"box" : 				{
					"description" : "fmat",
					"editor_interface" : "matrix",
					"fontname" : "Arial",
					"fontsize" : 10.0,
					"ftm_objref_conv" : 0,
					"ftm_scope" : 0,
					"id" : "obj-21",
					"maxclass" : "ftm.object",
					"name" : "eql",
					"numinlets" : 1,
					"numoutlets" : 2,
					"outlettype" : [ "", "" ],
					"patching_rect" : [ 1456.846436, 404.75, 54.224747, 17.0 ],
					"persistence" : 0,
					"presentation_rect" : [ 1456.846436, 404.75, 54.224747, 17.0 ],
					"scope" : 0,
					"text" : "fmat"
				}

			}
, 			{
				"box" : 				{
					"fontname" : "Arial",
					"fontsize" : 10.0,
					"id" : "obj-12",
					"maxclass" : "newobj",
					"numinlets" : 2,
					"numoutlets" : 1,
					"outlettype" : [ "" ],
					"patching_rect" : [ 1227.846436, 500.0, 97.0, 18.0 ],
					"text" : "sfa.hynek_eq_coeff"
				}

			}
, 			{
				"box" : 				{
					"id" : "obj-34",
					"maxclass" : "button",
					"numinlets" : 1,
					"numoutlets" : 1,
					"outlettype" : [ "bang" ],
					"patching_rect" : [ 1155.846436, 400.0, 20.0, 20.0 ]
				}

			}
, 			{
				"box" : 				{
					"#init" : "",
					"#loadbang" : 0,
					"#triggerall" : 0,
					"#untuple" : 0,
					"fontname" : "Arial",
					"fontsize" : 10.0,
					"ftm_objref_conv" : 0,
					"ftm_scope" : 0,
					"id" : "obj-33",
					"maxclass" : "ftm.mess",
					"numinlets" : 2,
					"numoutlets" : 1,
					"outlettype" : [ "" ],
					"patching_rect" : [ 1155.846436, 428.75, 34.457993, 16.0 ],
					"presentation_rect" : [ 1155.846436, 428.75, 34.457993, 16.0 ],
					"text" : [ "_($wts)" ]
				}

			}
, 			{
				"box" : 				{
					"fontname" : "Arial",
					"fontsize" : 10.0,
					"id" : "obj-30",
					"maxclass" : "newobj",
					"numinlets" : 2,
					"numoutlets" : 1,
					"outlettype" : [ "" ],
					"patching_rect" : [ 610.34906, 496.0, 111.0, 18.0 ],
					"saved_object_attributes" : 					{
						"ftm_objref_conv" : 0,
						"ftm_scope" : 0
					}
,
					"text" : "mnm.xmul @swap yes"
				}

			}
, 			{
				"box" : 				{
					"fontname" : "Arial",
					"fontsize" : 10.0,
					"id" : "obj-26",
					"maxclass" : "newobj",
					"numinlets" : 2,
					"numoutlets" : 2,
					"outlettype" : [ "", "float" ],
					"patching_rect" : [ 1155.846436, 340.25, 73.0, 18.0 ],
					"text" : "sfa.fft2barkmx"
				}

			}
, 			{
				"box" : 				{
					"fontname" : "Arial",
					"fontsize" : 10.0,
					"id" : "obj-17",
					"maxclass" : "message",
					"numinlets" : 2,
					"numoutlets" : 1,
					"outlettype" : [ "" ],
					"patching_rect" : [ 1517.846436, 321.0, 32.5, 16.0 ],
					"text" : "clear"
				}

			}
, 			{
				"box" : 				{
					"#init" : "",
					"#loadbang" : 0,
					"#triggerall" : 0,
					"#untuple" : 0,
					"fontname" : "Arial",
					"fontsize" : 10.0,
					"ftm_objref_conv" : 0,
					"ftm_scope" : 0,
					"id" : "obj-15",
					"maxclass" : "ftm.mess",
					"numinlets" : 2,
					"numoutlets" : 1,
					"outlettype" : [ "" ],
					"patching_rect" : [ 1155.846436, 371.5, 64.490273, 16.0 ],
					"presentation_rect" : [ 1155.846436, 371.5, 64.490273, 16.0 ],
					"text" : [ "_($wts set $1)" ]
				}

			}
, 			{
				"box" : 				{
					"description" : "fmat",
					"editor_interface" : "matrix",
					"fontname" : "Arial",
					"fontsize" : 10.0,
					"ftm_objref_conv" : 0,
					"ftm_scope" : 0,
					"id" : "obj-14",
					"maxclass" : "ftm.object",
					"name" : "wts",
					"numinlets" : 1,
					"numoutlets" : 2,
					"outlettype" : [ "", "" ],
					"patching_rect" : [ 1517.846436, 349.0, 56.224747, 17.0 ],
					"persistence" : 0,
					"presentation_rect" : [ 1517.846436, 349.0, 56.224747, 17.0 ],
					"scope" : 0,
					"text" : "fmat"
				}

			}
, 			{
				"box" : 				{
					"fontname" : "Arial",
					"fontsize" : 10.0,
					"id" : "obj-11",
					"maxclass" : "newobj",
					"numinlets" : 2,
					"numoutlets" : 1,
					"outlettype" : [ "" ],
					"patching_rect" : [ 610.34906, 404.75, 98.0, 18.0 ],
					"saved_object_attributes" : 					{
						"ftm_objref_conv" : 0,
						"ftm_scope" : 0
					}
,
					"text" : "gbr.wind= hamming"
				}

			}
, 			{
				"box" : 				{
					"#init" : "",
					"#loadbang" : 0,
					"#triggerall" : 0,
					"#untuple" : 0,
					"fontname" : "Arial",
					"fontsize" : 10.0,
					"ftm_objref_conv" : 0,
					"ftm_scope" : 2,
					"id" : "obj-9",
					"maxclass" : "ftm.mess",
					"numinlets" : 2,
					"numoutlets" : 1,
					"outlettype" : [ "" ],
					"patching_rect" : [ 610.34906, 368.5, 77.293556, 16.0 ],
					"presentation_rect" : [ 610.34906, 368.5, 77.293556, 16.0 ],
					"text" : [ "_($1 mul 32768.)" ]
				}

			}
 ],
		"lines" : [ 			{
				"patchline" : 				{
					"destination" : [ "obj-69", 0 ],
					"disabled" : 0,
					"hidden" : 0,
					"source" : [ "obj-1", 0 ]
				}

			}
, 			{
				"patchline" : 				{
					"destination" : [ "obj-22", 0 ],
					"disabled" : 0,
					"hidden" : 0,
					"source" : [ "obj-11", 0 ]
				}

			}
, 			{
				"patchline" : 				{
					"destination" : [ "obj-40", 0 ],
					"disabled" : 0,
					"hidden" : 0,
					"source" : [ "obj-12", 0 ]
				}

			}
, 			{
				"patchline" : 				{
					"destination" : [ "obj-34", 0 ],
					"disabled" : 0,
					"hidden" : 0,
					"source" : [ "obj-15", 0 ]
				}

			}
, 			{
				"patchline" : 				{
					"destination" : [ "obj-14", 0 ],
					"disabled" : 0,
					"hidden" : 0,
					"source" : [ "obj-17", 0 ]
				}

			}
, 			{
				"patchline" : 				{
					"destination" : [ "obj-21", 0 ],
					"disabled" : 0,
					"hidden" : 0,
					"source" : [ "obj-18", 0 ]
				}

			}
, 			{
				"patchline" : 				{
					"destination" : [ "obj-60", 1 ],
					"disabled" : 0,
					"hidden" : 0,
					"source" : [ "obj-19", 0 ]
				}

			}
, 			{
				"patchline" : 				{
					"destination" : [ "obj-8", 0 ],
					"disabled" : 0,
					"hidden" : 0,
					"source" : [ "obj-19", 0 ]
				}

			}
, 			{
				"patchline" : 				{
					"destination" : [ "obj-30", 0 ],
					"disabled" : 0,
					"hidden" : 0,
					"source" : [ "obj-22", 0 ]
				}

			}
, 			{
				"patchline" : 				{
					"destination" : [ "obj-25", 0 ],
					"disabled" : 0,
					"hidden" : 0,
					"source" : [ "obj-24", 0 ]
				}

			}
, 			{
				"patchline" : 				{
					"destination" : [ "obj-17", 0 ],
					"disabled" : 0,
					"hidden" : 0,
					"source" : [ "obj-25", 0 ]
				}

			}
, 			{
				"patchline" : 				{
					"destination" : [ "obj-18", 0 ],
					"disabled" : 0,
					"hidden" : 0,
					"source" : [ "obj-25", 0 ]
				}

			}
, 			{
				"patchline" : 				{
					"destination" : [ "obj-45", 0 ],
					"disabled" : 0,
					"hidden" : 0,
					"source" : [ "obj-25", 0 ]
				}

			}
, 			{
				"patchline" : 				{
					"destination" : [ "obj-56", 0 ],
					"disabled" : 0,
					"hidden" : 0,
					"source" : [ "obj-25", 0 ]
				}

			}
, 			{
				"patchline" : 				{
					"destination" : [ "obj-12", 0 ],
					"disabled" : 0,
					"hidden" : 0,
					"source" : [ "obj-26", 1 ]
				}

			}
, 			{
				"patchline" : 				{
					"destination" : [ "obj-15", 0 ],
					"disabled" : 0,
					"hidden" : 0,
					"source" : [ "obj-26", 0 ]
				}

			}
, 			{
				"patchline" : 				{
					"destination" : [ "obj-19", 0 ],
					"disabled" : 0,
					"hidden" : 0,
					"source" : [ "obj-26", 1 ]
				}

			}
, 			{
				"patchline" : 				{
					"destination" : [ "obj-63", 1 ],
					"disabled" : 0,
					"hidden" : 0,
					"source" : [ "obj-26", 1 ]
				}

			}
, 			{
				"patchline" : 				{
					"destination" : [ "obj-72", 0 ],
					"disabled" : 0,
					"hidden" : 0,
					"source" : [ "obj-26", 1 ]
				}

			}
, 			{
				"patchline" : 				{
					"destination" : [ "obj-74", 0 ],
					"disabled" : 0,
					"hidden" : 0,
					"source" : [ "obj-29", 0 ]
				}

			}
, 			{
				"patchline" : 				{
					"destination" : [ "obj-86", 0 ],
					"disabled" : 0,
					"hidden" : 0,
					"source" : [ "obj-29", 0 ]
				}

			}
, 			{
				"patchline" : 				{
					"destination" : [ "obj-78", 1 ],
					"disabled" : 0,
					"hidden" : 0,
					"source" : [ "obj-30", 0 ]
				}

			}
, 			{
				"patchline" : 				{
					"destination" : [ "obj-53", 0 ],
					"disabled" : 0,
					"hidden" : 0,
					"source" : [ "obj-31", 0 ]
				}

			}
, 			{
				"patchline" : 				{
					"destination" : [ "obj-30", 1 ],
					"disabled" : 0,
					"hidden" : 0,
					"source" : [ "obj-33", 0 ]
				}

			}
, 			{
				"patchline" : 				{
					"destination" : [ "obj-33", 0 ],
					"disabled" : 0,
					"hidden" : 0,
					"source" : [ "obj-34", 0 ]
				}

			}
, 			{
				"patchline" : 				{
					"destination" : [ "obj-41", 0 ],
					"disabled" : 0,
					"hidden" : 0,
					"source" : [ "obj-38", 0 ]
				}

			}
, 			{
				"patchline" : 				{
					"destination" : [ "obj-36", 0 ],
					"disabled" : 0,
					"hidden" : 0,
					"source" : [ "obj-40", 0 ]
				}

			}
, 			{
				"patchline" : 				{
					"destination" : [ "obj-42", 0 ],
					"disabled" : 0,
					"hidden" : 0,
					"source" : [ "obj-41", 0 ]
				}

			}
, 			{
				"patchline" : 				{
					"destination" : [ "obj-43", 0 ],
					"disabled" : 0,
					"hidden" : 0,
					"source" : [ "obj-41", 0 ]
				}

			}
, 			{
				"patchline" : 				{
					"destination" : [ "obj-31", 0 ],
					"disabled" : 0,
					"hidden" : 0,
					"source" : [ "obj-42", 0 ]
				}

			}
, 			{
				"patchline" : 				{
					"destination" : [ "obj-49", 0 ],
					"disabled" : 0,
					"hidden" : 0,
					"source" : [ "obj-42", 0 ]
				}

			}
, 			{
				"patchline" : 				{
					"destination" : [ "obj-42", 1 ],
					"disabled" : 0,
					"hidden" : 0,
					"source" : [ "obj-43", 0 ]
				}

			}
, 			{
				"patchline" : 				{
					"destination" : [ "obj-51", 1 ],
					"disabled" : 0,
					"hidden" : 0,
					"source" : [ "obj-43", 0 ]
				}

			}
, 			{
				"patchline" : 				{
					"destination" : [ "obj-54", 0 ],
					"disabled" : 0,
					"hidden" : 0,
					"source" : [ "obj-44", 0 ]
				}

			}
, 			{
				"patchline" : 				{
					"destination" : [ "obj-46", 0 ],
					"disabled" : 0,
					"hidden" : 0,
					"source" : [ "obj-45", 0 ]
				}

			}
, 			{
				"patchline" : 				{
					"destination" : [ "obj-51", 0 ],
					"disabled" : 0,
					"hidden" : 0,
					"source" : [ "obj-49", 0 ]
				}

			}
, 			{
				"patchline" : 				{
					"destination" : [ "obj-57", 0 ],
					"disabled" : 0,
					"hidden" : 0,
					"source" : [ "obj-50", 0 ]
				}

			}
, 			{
				"patchline" : 				{
					"destination" : [ "obj-52", 0 ],
					"disabled" : 0,
					"hidden" : 0,
					"source" : [ "obj-51", 0 ]
				}

			}
, 			{
				"patchline" : 				{
					"destination" : [ "obj-53", 1 ],
					"disabled" : 0,
					"hidden" : 0,
					"source" : [ "obj-52", 0 ]
				}

			}
, 			{
				"patchline" : 				{
					"destination" : [ "obj-55", 0 ],
					"disabled" : 0,
					"hidden" : 0,
					"source" : [ "obj-53", 0 ]
				}

			}
, 			{
				"patchline" : 				{
					"destination" : [ "obj-1", 0 ],
					"disabled" : 0,
					"hidden" : 0,
					"source" : [ "obj-54", 0 ]
				}

			}
, 			{
				"patchline" : 				{
					"destination" : [ "obj-60", 0 ],
					"disabled" : 0,
					"hidden" : 0,
					"source" : [ "obj-55", 0 ]
				}

			}
, 			{
				"patchline" : 				{
					"destination" : [ "obj-29", 0 ],
					"disabled" : 0,
					"hidden" : 0,
					"source" : [ "obj-56", 0 ]
				}

			}
, 			{
				"patchline" : 				{
					"destination" : [ "obj-61", 0 ],
					"disabled" : 0,
					"hidden" : 0,
					"source" : [ "obj-56", 0 ]
				}

			}
, 			{
				"patchline" : 				{
					"destination" : [ "obj-75", 0 ],
					"disabled" : 0,
					"hidden" : 0,
					"source" : [ "obj-56", 0 ]
				}

			}
, 			{
				"patchline" : 				{
					"destination" : [ "obj-76", 0 ],
					"disabled" : 0,
					"hidden" : 0,
					"source" : [ "obj-56", 0 ]
				}

			}
, 			{
				"patchline" : 				{
					"destination" : [ "obj-58", 0 ],
					"disabled" : 0,
					"hidden" : 0,
					"source" : [ "obj-57", 0 ]
				}

			}
, 			{
				"patchline" : 				{
					"destination" : [ "obj-55", 1 ],
					"disabled" : 0,
					"hidden" : 0,
					"source" : [ "obj-58", 0 ]
				}

			}
, 			{
				"patchline" : 				{
					"destination" : [ "obj-9", 0 ],
					"disabled" : 0,
					"hidden" : 0,
					"source" : [ "obj-6", 0 ]
				}

			}
, 			{
				"patchline" : 				{
					"destination" : [ "obj-63", 0 ],
					"disabled" : 0,
					"hidden" : 0,
					"source" : [ "obj-60", 0 ]
				}

			}
, 			{
				"patchline" : 				{
					"destination" : [ "obj-64", 0 ],
					"disabled" : 0,
					"hidden" : 0,
					"source" : [ "obj-61", 0 ]
				}

			}
, 			{
				"patchline" : 				{
					"destination" : [ "obj-66", 0 ],
					"disabled" : 0,
					"hidden" : 0,
					"source" : [ "obj-61", 0 ]
				}

			}
, 			{
				"patchline" : 				{
					"destination" : [ "obj-54", 0 ],
					"disabled" : 0,
					"hidden" : 0,
					"source" : [ "obj-62", 0 ]
				}

			}
, 			{
				"patchline" : 				{
					"destination" : [ "obj-65", 0 ],
					"disabled" : 0,
					"hidden" : 0,
					"source" : [ "obj-63", 0 ]
				}

			}
, 			{
				"patchline" : 				{
					"destination" : [ "obj-65", 0 ],
					"disabled" : 0,
					"hidden" : 0,
					"source" : [ "obj-64", 0 ]
				}

			}
, 			{
				"patchline" : 				{
					"destination" : [ "obj-44", 1 ],
					"disabled" : 0,
					"hidden" : 0,
					"source" : [ "obj-65", 1 ]
				}

			}
, 			{
				"patchline" : 				{
					"destination" : [ "obj-44", 0 ],
					"disabled" : 0,
					"hidden" : 0,
					"source" : [ "obj-65", 0 ]
				}

			}
, 			{
				"patchline" : 				{
					"destination" : [ "obj-62", 0 ],
					"disabled" : 0,
					"hidden" : 0,
					"source" : [ "obj-66", 0 ]
				}

			}
, 			{
				"patchline" : 				{
					"destination" : [ "obj-71", 0 ],
					"disabled" : 0,
					"hidden" : 0,
					"source" : [ "obj-66", 0 ]
				}

			}
, 			{
				"patchline" : 				{
					"destination" : [ "obj-13", 0 ],
					"disabled" : 0,
					"hidden" : 0,
					"source" : [ "obj-69", 0 ]
				}

			}
, 			{
				"patchline" : 				{
					"destination" : [ "obj-29", 1 ],
					"disabled" : 0,
					"hidden" : 0,
					"source" : [ "obj-7", 0 ]
				}

			}
, 			{
				"patchline" : 				{
					"destination" : [ "obj-74", 0 ],
					"disabled" : 0,
					"hidden" : 0,
					"source" : [ "obj-7", 0 ]
				}

			}
, 			{
				"patchline" : 				{
					"destination" : [ "obj-69", 0 ],
					"disabled" : 0,
					"hidden" : 0,
					"source" : [ "obj-70", 0 ]
				}

			}
, 			{
				"patchline" : 				{
					"destination" : [ "obj-69", 0 ],
					"disabled" : 0,
					"hidden" : 0,
					"source" : [ "obj-71", 0 ]
				}

			}
, 			{
				"patchline" : 				{
					"destination" : [ "obj-73", 0 ],
					"disabled" : 0,
					"hidden" : 0,
					"source" : [ "obj-72", 0 ]
				}

			}
, 			{
				"patchline" : 				{
					"destination" : [ "obj-90", 0 ],
					"disabled" : 0,
					"hidden" : 0,
					"source" : [ "obj-73", 0 ]
				}

			}
, 			{
				"patchline" : 				{
					"destination" : [ "obj-73", 0 ],
					"disabled" : 0,
					"hidden" : 0,
					"source" : [ "obj-74", 0 ]
				}

			}
, 			{
				"patchline" : 				{
					"destination" : [ "obj-22", 1 ],
					"disabled" : 0,
					"hidden" : 0,
					"source" : [ "obj-75", 0 ]
				}

			}
, 			{
				"patchline" : 				{
					"destination" : [ "obj-26", 0 ],
					"disabled" : 0,
					"hidden" : 0,
					"source" : [ "obj-75", 0 ]
				}

			}
, 			{
				"patchline" : 				{
					"destination" : [ "obj-12", 1 ],
					"disabled" : 0,
					"hidden" : 0,
					"source" : [ "obj-76", 0 ]
				}

			}
, 			{
				"patchline" : 				{
					"destination" : [ "obj-26", 1 ],
					"disabled" : 0,
					"hidden" : 0,
					"source" : [ "obj-76", 0 ]
				}

			}
, 			{
				"patchline" : 				{
					"destination" : [ "obj-38", 0 ],
					"disabled" : 0,
					"hidden" : 0,
					"source" : [ "obj-78", 0 ]
				}

			}
, 			{
				"patchline" : 				{
					"destination" : [ "obj-89", 0 ],
					"disabled" : 0,
					"hidden" : 0,
					"source" : [ "obj-78", 1 ]
				}

			}
, 			{
				"patchline" : 				{
					"destination" : [ "obj-61", 1 ],
					"disabled" : 0,
					"hidden" : 0,
					"source" : [ "obj-79", 0 ]
				}

			}
, 			{
				"patchline" : 				{
					"destination" : [ "obj-74", 0 ],
					"disabled" : 0,
					"hidden" : 0,
					"source" : [ "obj-79", 0 ]
				}

			}
, 			{
				"patchline" : 				{
					"destination" : [ "obj-50", 0 ],
					"disabled" : 0,
					"hidden" : 0,
					"source" : [ "obj-8", 0 ]
				}

			}
, 			{
				"patchline" : 				{
					"destination" : [ "obj-74", 0 ],
					"disabled" : 0,
					"hidden" : 0,
					"source" : [ "obj-83", 0 ]
				}

			}
, 			{
				"patchline" : 				{
					"destination" : [ "obj-75", 1 ],
					"disabled" : 0,
					"hidden" : 0,
					"source" : [ "obj-83", 0 ]
				}

			}
, 			{
				"patchline" : 				{
					"destination" : [ "obj-74", 0 ],
					"disabled" : 0,
					"hidden" : 0,
					"source" : [ "obj-84", 0 ]
				}

			}
, 			{
				"patchline" : 				{
					"destination" : [ "obj-76", 1 ],
					"disabled" : 0,
					"hidden" : 0,
					"source" : [ "obj-84", 0 ]
				}

			}
, 			{
				"patchline" : 				{
					"destination" : [ "obj-74", 0 ],
					"disabled" : 0,
					"hidden" : 0,
					"source" : [ "obj-85", 0 ]
				}

			}
, 			{
				"patchline" : 				{
					"destination" : [ "obj-78", 0 ],
					"disabled" : 0,
					"hidden" : 0,
					"source" : [ "obj-86", 0 ]
				}

			}
, 			{
				"patchline" : 				{
					"destination" : [ "obj-73", 0 ],
					"disabled" : 0,
					"hidden" : 0,
					"source" : [ "obj-89", 0 ]
				}

			}
, 			{
				"patchline" : 				{
					"destination" : [ "obj-11", 0 ],
					"disabled" : 0,
					"hidden" : 0,
					"source" : [ "obj-9", 0 ]
				}

			}
, 			{
				"patchline" : 				{
					"destination" : [ "obj-38", 0 ],
					"disabled" : 0,
					"hidden" : 0,
					"source" : [ "obj-90", 0 ]
				}

			}
, 			{
				"patchline" : 				{
					"destination" : [ "obj-70", 0 ],
					"disabled" : 0,
					"hidden" : 0,
					"source" : [ "obj-94", 0 ]
				}

			}
 ],
		"dependency_cache" : [ 			{
				"name" : "sfa.fft2barkmx.maxpat",
				"bootpath" : "/Applications/Max 6.1/Cycling '74/sfasciani",
				"patcherrelativepath" : ".",
				"type" : "JSON",
				"implicit" : 1
			}
, 			{
				"name" : "sfa.ceil.maxpat",
				"bootpath" : "/Applications/Max 6.1/Cycling '74/sfasciani",
				"patcherrelativepath" : ".",
				"type" : "JSON",
				"implicit" : 1
			}
, 			{
				"name" : "sfa.hz2bark.maxpat",
				"bootpath" : "/Applications/Max 6.1/Cycling '74/sfasciani",
				"patcherrelativepath" : ".",
				"type" : "JSON",
				"implicit" : 1
			}
, 			{
				"name" : "sfa.count_min_one.js",
				"bootpath" : "/Applications/Max 6.1/Cycling '74/sfasciani",
				"patcherrelativepath" : ".",
				"type" : "TEXT",
				"implicit" : 1
			}
, 			{
				"name" : "mnm.q.maxpat",
				"bootpath" : "/Applications/Max 6.1/Cycling '74/ftm-and-co/mnm-abstractions",
				"patcherrelativepath" : "../ftm-and-co/mnm-abstractions",
				"type" : "JSON",
				"implicit" : 1
			}
, 			{
				"name" : "sfa.hz2bark_vect.maxpat",
				"bootpath" : "/Applications/Max 6.1/Cycling '74/sfasciani",
				"patcherrelativepath" : ".",
				"type" : "JSON",
				"implicit" : 1
			}
, 			{
				"name" : "sfa.hynek_eq_coeff.maxpat",
				"bootpath" : "/Applications/Max 6.1/Cycling '74/sfasciani",
				"patcherrelativepath" : ".",
				"type" : "JSON",
				"implicit" : 1
			}
, 			{
				"name" : "sfa.bark2hz_vect.maxpat",
				"bootpath" : "/Applications/Max 6.1/Cycling '74/sfasciani",
				"patcherrelativepath" : ".",
				"type" : "JSON",
				"implicit" : 1
			}
, 			{
				"name" : "sfa.idft_real_coeff.maxpat",
				"bootpath" : "/Applications/Max 6.1/Cycling '74/sfasciani",
				"patcherrelativepath" : ".",
				"type" : "JSON",
				"implicit" : 1
			}
, 			{
				"name" : "ftm.mess.mxo",
				"type" : "iLaX"
			}
, 			{
				"name" : "gbr.wind=.mxo",
				"type" : "iLaX"
			}
, 			{
				"name" : "ftm.object.mxo",
				"type" : "iLaX"
			}
, 			{
				"name" : "ftm.copy.mxo",
				"type" : "iLaX"
			}
, 			{
				"name" : "mnm.minmax.mxo",
				"type" : "iLaX"
			}
, 			{
				"name" : "mnm.xmul.mxo",
				"type" : "iLaX"
			}
, 			{
				"name" : "mnm.transpose.mxo",
				"type" : "iLaX"
			}
, 			{
				"name" : "sfa.levinson.mxo",
				"type" : "iLaX"
			}
, 			{
				"name" : "sfa.lpc2cep.mxo",
				"type" : "iLaX"
			}
, 			{
				"name" : "gbr.lifter.mxo",
				"type" : "iLaX"
			}
, 			{
				"name" : "sfa.rastafilt.mxo",
				"type" : "iLaX"
			}
 ]
	}

}
